<?xml version="1.0" standalone="no"?><!DOCTYPE svg PUBLIC "-//W3C//DTD SVG 1.1//EN" "http://www.w3.org/Graphics/SVG/1.1/DTD/svg11.dtd"><svg t="1592116483574" class="icon" viewBox="0 0 1024 1024" version="1.1" xmlns="http://www.w3.org/2000/svg" p-id="3433" xmlns:xlink="http://www.w3.org/1999/xlink" width="200" height="200"><defs><style type="text/css">@font-face { font-family: uc-nexus-iconfont; src: url("chrome-extension://pogijhnlcfmcppgimcaccdkmbedjkmhi/res/font_9qmmi8b8jsxxbt9.woff") format("woff"), url("chrome-extension://pogijhnlcfmcppgimcaccdkmbedjkmhi/res/font_9qmmi8b8jsxxbt9.ttf") format("truetype"); }
</style></defs><path d="M512 0C229.034667 0 0 228.992 0 512c0 282.965333 228.992 512 512 512 282.965333 0 512-228.992 512-512 0-282.965333-228.992-512-512-512z m0 955.733333C267.306667 955.733333 68.266667 756.693333 68.266667 512S267.306667 68.266667 512 68.266667 955.733333 267.306667 955.733333 512 756.693333 955.733333 512 955.733333z" fill="" p-id="3434"></path><path d="M742.698667 477.866667H546.133333V281.301333a34.133333 34.133333 0 1 0-68.266666 0V477.866667H281.301333a34.133333 34.133333 0 1 0 0 68.266666H477.866667v196.565334a34.133333 34.133333 0 1 0 68.266666 0V546.133333h196.565334a34.133333 34.133333 0 1 0 0-68.266666z" fill="" p-id="3435"></path></svg>