<?xml version="1.0" standalone="no"?><!DOCTYPE svg PUBLIC "-//W3C//DTD SVG 1.1//EN" "http://www.w3.org/Graphics/SVG/1.1/DTD/svg11.dtd"><svg t="1594000712854" class="icon" viewBox="0 0 1024 1024" version="1.1" xmlns="http://www.w3.org/2000/svg" p-id="4237" xmlns:xlink="http://www.w3.org/1999/xlink" width="200" height="200"><defs><style type="text/css"></style></defs><path d="M989.86666667 890.88l-295.82222187-295.82222187a5.9164448 5.9164448 0 0 1 0-8.192l225.5075552-225.50755626a4.3235552 4.3235552 0 0 0 0-5.91644374L588.23111147 24.3484448a4.3235552 4.3235552 0 0 0-5.9164448 0l-500.62222187 500.62222187A103.53777813 103.53777813 0 0 0 79.6444448 671.28888853l261.68888853 261.6888896a4.3235552 4.3235552 0 0 0 5.9164448 0L603.02222187 679.48088853a5.9164448 5.9164448 0 0 1 8.192 0l295.82222293 295.82222294a5.9164448 5.9164448 0 0 0 8.192 0L989.86666667 898.8444448a5.9164448 5.9164448 0 0 0 0-7.9644448z m-432.3555552-773.68888853l276.7075552 277.39022186-64.39822187 64.39822187L492.88533333 181.81688853z" fill="#989898" p-id="4238"></path></svg>