<?xml version="1.0" standalone="no"?><!DOCTYPE svg PUBLIC "-//W3C//DTD SVG 1.1//EN" "http://www.w3.org/Graphics/SVG/1.1/DTD/svg11.dtd"><svg t="1589511817725" class="icon" viewBox="0 0 1510 1024" version="1.1" xmlns="http://www.w3.org/2000/svg" p-id="11544" xmlns:xlink="http://www.w3.org/1999/xlink" width="294.921875" height="200"><defs><style type="text/css">@font-face { font-family: uc-nexus-iconfont; src: url("chrome-extension://pogijhnlcfmcppgimcaccdkmbedjkmhi/res/font_9qmmi8b8jsxxbt9.woff") format("woff"), url("chrome-extension://pogijhnlcfmcppgimcaccdkmbedjkmhi/res/font_9qmmi8b8jsxxbt9.ttf") format("truetype"); }
</style></defs><path d="M253.343 508.343a54.126 54.126 0 1 0 54.126-54.126 54.126 54.126 0 0 0-54.126 54.126zM447.903 508.343a54.126 54.126 0 0 0 108.251 0 54.126 54.126 0 1 0-108.251 0zM641.732 508.343a54.126 54.126 0 0 0 108.251 0 54.126 54.126 0 1 0-108.251 0z" p-id="11545"></path><path d="M5.389 120.686v445.44A48.274 48.274 0 0 0 52.2 612.937h59.977v-46.811H52.2v-445.44h59.977V73.874H52.2A44.617 44.617 0 0 0 5.39 115.566z m956.708-46.812H902.12v46.812h59.977v445.44H902.12v46.811h59.977a48.274 48.274 0 0 0 46.812-46.811v-445.44a43.886 43.886 0 0 0-41.692-46.812zM823.857 5.12H193.366a48.274 48.274 0 0 0-46.812 49.006v585.143a48.274 48.274 0 0 0 46.812 46.811h630.491a48.274 48.274 0 0 0 49.006-46.811V54.126a43.886 43.886 0 0 0-40.96-46.812z m0 636.343H193.366V54.126h630.491v585.143z" p-id="11546"></path><path d="M193.366 693.394a53.394 53.394 0 0 1-51.932-54.125V54.126a53.394 53.394 0 0 1 51.932-51.932H830.44a46.811 46.811 0 0 1 33.646 16.823 51.931 51.931 0 0 1 8.777 35.109v585.143a53.394 53.394 0 0 1-51.931 51.931z m0-683.154a43.154 43.154 0 0 0-41.692 43.886v585.143a43.154 43.154 0 0 0 42.423 41.691h629.76a42.423 42.423 0 0 0 41.692-41.691V54.126A39.497 39.497 0 0 0 856.04 25.6a36.571 36.571 0 0 0-26.331-13.166h-5.852z m625.371 643.657v-7.314h-629.76V46.81h640V639.27h7.315zM198.486 639.27h620.251V54.126H198.486z m703.634-15.36H897v-57.783h59.977V127.269H897V68.754h73.143a49.006 49.006 0 0 1 46.811 52.663v444.709a53.394 53.394 0 0 1-51.931 51.931z m5.12-10.24h54.857a42.423 42.423 0 0 0 41.692-41.692V120.686a39.497 39.497 0 0 0-36.572-41.692H907.24v36.572h59.977V574.17H907.24z m-789.943 10.24H52.2A53.394 53.394 0 0 1 0.27 566.126v-450.56a48.274 48.274 0 0 1 16.823-34.377 46.08 46.08 0 0 1 35.84-12.435h64.365v58.515H57.32v438.857h59.977zM50.006 78.994a38.034 38.034 0 0 0-26.332 10.24 37.303 37.303 0 0 0-13.165 27.063v449.829A43.154 43.154 0 0 0 52.2 607.817h54.857v-36.571H47.08v-455.68h59.977V78.994H50.006z" p-id="11547"></path></svg>