<?xml version="1.0" standalone="no"?><!DOCTYPE svg PUBLIC "-//W3C//DTD SVG 1.1//EN" "http://www.w3.org/Graphics/SVG/1.1/DTD/svg11.dtd"><svg t="1592222666656" class="icon" viewBox="0 0 1024 1024" version="1.1" xmlns="http://www.w3.org/2000/svg" p-id="2693" xmlns:xlink="http://www.w3.org/1999/xlink" width="200" height="200"><defs><style type="text/css">@font-face { font-family: uc-nexus-iconfont; src: url("chrome-extension://pogijhnlcfmcppgimcaccdkmbedjkmhi/res/font_9qmmi8b8jsxxbt9.woff") format("woff"), url("chrome-extension://pogijhnlcfmcppgimcaccdkmbedjkmhi/res/font_9qmmi8b8jsxxbt9.ttf") format("truetype"); }
</style></defs><path d="M896 256H705.979733s-1.979733-3.805867-1.979733-48.008533-35.805867-80.008533-80.008533-80.008534h-256c-44.1856 0-80.008533 35.805867-80.008534 80.008534S289.962667 256 289.962667 256H95.982933c-35.328 0-64 28.672-64 64v512c0 35.328 28.672 64 64 64h800c35.328 0 64-28.672 64-64v-512c0-35.328-28.672-64-64-64zM497.442133 767.1296c-106.052267 0-192-85.947733-192-192 0-106.018133 85.947733-192 192-192 106.018133 0 192 85.947733 192 192s-85.981867 192-192 192z" p-id="2694"></path></svg>