<?xml version="1.0" standalone="no"?><!DOCTYPE svg PUBLIC "-//W3C//DTD SVG 1.1//EN" "http://www.w3.org/Graphics/SVG/1.1/DTD/svg11.dtd"><svg t="1589511679618" class="icon" viewBox="0 0 1024 1024" version="1.1" xmlns="http://www.w3.org/2000/svg" p-id="9357" xmlns:xlink="http://www.w3.org/1999/xlink" width="200" height="200"><defs><style type="text/css">@font-face { font-family: uc-nexus-iconfont; src: url("chrome-extension://pogijhnlcfmcppgimcaccdkmbedjkmhi/res/font_9qmmi8b8jsxxbt9.woff") format("woff"), url("chrome-extension://pogijhnlcfmcppgimcaccdkmbedjkmhi/res/font_9qmmi8b8jsxxbt9.ttf") format("truetype"); }
</style></defs><path d="M289.9 976c-10 0-20-2.4-29.1-7.3-20.3-10.8-32.9-31.8-32.9-54.7V810H152C68.2 810 0 741.8 0 658V200C0 116.2 68.2 48 152 48h42.8c17.7 0 32 14.3 32 32s-14.3 32-32 32H152c-48.5 0-88 39.5-88 88v458c0 48.5 39.5 88 88 88h77.8c34.2 0 62 27.8 62 62v102.2L535.5 746H872c48.5 0 88-39.5 88-88V200c0-48.5-39.5-88-88-88H387.5c-17.7 0-32-14.3-32-32s14.3-32 32-32H872c83.8 0 152 68.2 152 152v458c0 83.8-68.2 152-152 152H555.1L324.5 965.4c-10.5 7-22.5 10.6-34.6 10.6z" fill="" p-id="9358"></path><path d="M626.8 448.2H397.2c-17.7 0-32.2-14.5-32.2-32.2 0-17.7 14.5-32.2 32.2-32.2h229.6c17.7 0 32.2 14.5 32.2 32.2 0 17.7-14.5 32.2-32.2 32.2zM626.8 576.3H397.2c-17.7 0-32.2-14.5-32.2-32.2 0-17.7 14.5-32.2 32.2-32.2h229.6c17.7 0 32.2 14.5 32.2 32.2 0 17.7-14.5 32.2-32.2 32.2z" fill="" p-id="9359"></path><path d="M544.2 347v289.6c0 17.7-14.5 32.2-32.2 32.2-17.7 0-32.2-14.5-32.2-32.2V347c0-17.7 14.5-32.2 32.2-32.2 17.7 0 32.2 14.5 32.2 32.2z" fill="" p-id="9360"></path><path d="M641.4 254.4L534.2 361.6c-12.5 12.5-33 12.5-45.6 0-12.5-12.5-12.5-33 0-45.6l107.2-107.2c12.5-12.5 33-12.5 45.6 0 12.5 12.6 12.5 33.1 0 45.6z" fill="" p-id="9361"></path><path d="M382.6 254.4l107.2 107.2c12.5 12.5 33 12.5 45.6 0 12.5-12.5 12.5-33 0-45.6L428.1 208.9c-12.5-12.5-33-12.5-45.6 0-12.4 12.5-12.4 33 0.1 45.5z" fill="" p-id="9362"></path></svg>