<?xml version="1.0" standalone="no"?><!DOCTYPE svg PUBLIC "-//W3C//DTD SVG 1.1//EN" "http://www.w3.org/Graphics/SVG/1.1/DTD/svg11.dtd"><svg t="1594000692747" class="icon" viewBox="0 0 1024 1024" version="1.1" xmlns="http://www.w3.org/2000/svg" p-id="4014" xmlns:xlink="http://www.w3.org/1999/xlink" width="200" height="200"><defs><style type="text/css"></style></defs><path d="M762.525823 67.477834 260.514315 67.477834c-37.995359 0-68.796876 30.801517-68.796876 68.796876l0 762.03566c35.501562 0.222057 64.214511 29.061896 64.214511 64.615647l31.442106 0c0-17.678638 14.331403-32.010041 32.010041-32.010041 17.678638 0 32.010041 14.331403 32.010041 32.010041l32.04688 0c0-17.678638 14.331403-32.010041 32.010041-32.010041 17.678638 0 32.010041 14.331403 32.010041 32.010041l32.04688 0c0-17.678638 14.331403-32.010041 32.010041-32.010041 17.678638 0 32.010041 14.331403 32.010041 32.010041l32.04688 0c0-17.678638 14.331403-32.010041 32.010041-32.010041 17.678638 0 32.010041 14.331403 32.010041 32.010041l31.658024 0c0-17.678638 14.331403-32.010041 32.010041-32.010041 17.678638 0 32.010041 14.331403 32.010041 32.010041l32.084743 0c0-35.32453 28.636201-63.960731 63.960731-63.960731l0-762.690576C831.322699 98.279351 800.521183 67.477834 762.525823 67.477834zM698.340989 495.177869c0 3.000334-2.432399 5.433756-5.433756 5.433756L558.684252 500.611625c-3.000334 0-5.433756 2.432399-5.433756 5.432733l0 68.548212c0 3.000334 2.432399 5.433756 5.433756 5.433756l132.809795 0c2.990101 0 5.418406 2.416026 5.432733 5.40715l0.306992 63.232137c0.014326 3.016707-2.430352 5.467525-5.447059 5.459339l-133.090181-0.332575c-3.006474-0.007163-5.447059 2.427282-5.447059 5.432733l0 102.352109c0 3.018753-2.461051 5.458315-5.478781 5.432733l-74.034157-0.627287c-2.982938-0.025583-5.387707-2.450818-5.387707-5.432733l0-101.738126c0-3.000334-2.432399-5.432733-5.432733-5.432733L330.131883 653.779074c-3.000334 0-5.432733-2.432399-5.432733-5.433756l0-62.885236c0-3.000334 2.432399-5.432733 5.432733-5.432733L462.917118 580.027349c3.000334 0 5.432733-2.432399 5.432733-5.433756l0-68.548212c0-3.000334-2.432399-5.432733-5.432733-5.432733L330.131883 500.612649c-3.000334 0-5.432733-2.432399-5.432733-5.433756l0-62.901609c0-2.994194 2.422166-5.424546 5.41636-5.432733l102.33062-0.311085c4.420683-0.013303 6.975878-5.019317 4.393054-8.607028L332.609307 273.134751c-2.586918-3.593851-0.01842-8.607028 4.409426-8.607028l83.408665 0c1.76111 0 3.413749 0.853437 4.431939 2.291183l85.980233 121.274064c2.172479 3.063779 6.723122 3.052522 8.880251-0.021489l85.851297-122.361839c1.017166-1.450025 2.676969-2.312672 4.447289-2.312672l74.264401 0c4.412496 0 6.985088 4.982478 4.429893 8.579399l-103.691617 145.975653c-2.551102 3.591805 0.008186 8.566096 4.41352 8.579399l103.490026 0.312108c2.994194 0.00921 5.417383 2.438539 5.417383 5.432733L698.342012 495.177869z" p-id="4015"></path></svg>