<?xml version="1.0" standalone="no"?><!DOCTYPE svg PUBLIC "-//W3C//DTD SVG 1.1//EN" "http://www.w3.org/Graphics/SVG/1.1/DTD/svg11.dtd"><svg t="1592116399978" class="icon" viewBox="0 0 1024 1024" version="1.1" xmlns="http://www.w3.org/2000/svg" p-id="2695" xmlns:xlink="http://www.w3.org/1999/xlink" width="200" height="200"><defs><style type="text/css">@font-face { font-family: uc-nexus-iconfont; src: url("chrome-extension://pogijhnlcfmcppgimcaccdkmbedjkmhi/res/font_9qmmi8b8jsxxbt9.woff") format("woff"), url("chrome-extension://pogijhnlcfmcppgimcaccdkmbedjkmhi/res/font_9qmmi8b8jsxxbt9.ttf") format("truetype"); }
</style></defs><path d="M512 938.666667c235.648 0 426.666667-191.018667 426.666667-426.666667S747.648 85.333333 512 85.333333 85.333333 276.352 85.333333 512s191.018667 426.666667 426.666667 426.666667z m0-49.770667c-208.149333 0-376.896-168.746667-376.896-376.896 0-208.149333 168.746667-376.896 376.896-376.896 208.149333 0 376.896 168.746667 376.896 376.896 0 208.149333-168.746667 376.896-376.896 376.896z" fill="#303030" p-id="2696"></path><path d="M512 803.562667c131.562667 0 238.229333-106.666667 238.229333-238.229334v-24.896H273.770667V565.333333c0 131.562667 106.666667 238.229333 238.229333 238.229334z m186.816-213.333334a188.48 188.48 0 0 1-373.632 0h373.632z" fill="#303030" p-id="2697"></path><path d="M359.616 456.128a60.949333 60.949333 0 1 1 0-121.898667 60.949333 60.949333 0 0 1 0 121.898667z m304.768 0a60.949333 60.949333 0 1 1 0-121.898667 60.949333 60.949333 0 0 1 0 121.898667z" fill="#303030" p-id="2698"></path></svg>