<?xml version="1.0" standalone="no"?><!DOCTYPE svg PUBLIC "-//W3C//DTD SVG 1.1//EN" "http://www.w3.org/Graphics/SVG/1.1/DTD/svg11.dtd"><svg t="1592222703212" class="icon" viewBox="0 0 1024 1024" version="1.1" xmlns="http://www.w3.org/2000/svg" p-id="3468" xmlns:xlink="http://www.w3.org/1999/xlink" width="200" height="200"><defs><style type="text/css">@font-face { font-family: uc-nexus-iconfont; src: url("chrome-extension://pogijhnlcfmcppgimcaccdkmbedjkmhi/res/font_9qmmi8b8jsxxbt9.woff") format("woff"), url("chrome-extension://pogijhnlcfmcppgimcaccdkmbedjkmhi/res/font_9qmmi8b8jsxxbt9.ttf") format("truetype"); }
</style></defs><path d="M151.7056 255.232v513.536c0 24.7296 24.6784 52.1984 52.0704 52.1984h613.7088c30.1312 0 52.0704-19.2256 52.0704-52.1728V255.2064c0-24.704-24.6784-52.1728-52.0704-52.1728H203.776c-30.1312 2.7392-52.0704 21.9648-52.0704 52.1728zM102.4 255.232C102.4 200.2688 148.992 153.6 203.776 153.6h613.7088C875.0336 153.6 921.6 200.2944 921.6 255.232v513.536c0 57.7024-46.592 101.632-101.376 101.632H203.776C146.2272 870.4 102.4 823.7056 102.4 768.768V255.232z" p-id="3469"></path><path d="M640 486.4c-56.576 0-102.4-45.824-102.4-102.4s45.824-102.4 102.4-102.4 102.4 45.824 102.4 102.4-45.824 102.4-102.4 102.4zM139.264 831.1552L128 719.6416l195.6352-236.8c16.0768-16.128 34.8416-24.2176 53.6064-21.5296 18.7648 0 32.1536 10.752 45.568 24.2176l125.952 161.4592 120.576-121.088c16.1024-16.1536 37.5296-24.2176 58.9824-21.5296 18.7392 2.688 34.816 13.44 45.568 29.5936L896 676.6848l-34.2784 154.4704H139.2896z" p-id="3470"></path></svg>