<?xml version="1.0" standalone="no"?><!DOCTYPE svg PUBLIC "-//W3C//DTD SVG 1.1//EN" "http://www.w3.org/Graphics/SVG/1.1/DTD/svg11.dtd"><svg t="1594000435359" class="icon" viewBox="0 0 1024 1024" version="1.1" xmlns="http://www.w3.org/2000/svg" p-id="3254" xmlns:xlink="http://www.w3.org/1999/xlink" width="200" height="200"><defs><style type="text/css"></style></defs><path d="M908.288 553.984c-16.384 0-29.696 13.312-29.696 29.696v276.48c0 35.84-28.672 64.512-65.536 64.512H194.56c-35.84 0-65.536-28.672-65.536-64.512V280.576c0-35.84 28.672-64.512 65.536-64.512h201.728c16.384 0 29.696-13.312 29.696-29.696 0-16.384-13.312-29.696-29.696-29.696H194.56c-67.584 0-122.88 55.296-122.88 122.88V860.16c0 67.584 55.296 121.856 122.88 121.856h619.52c67.584 0 122.88-54.272 122.88-121.856V583.68c1.024-16.384-12.288-29.696-28.672-29.696zM292.864 724.992c-3.072 15.36 8.192 30.72 23.552 33.792 2.048 0 3.072 1.024 5.12 1.024 14.336 0 25.6-10.24 28.672-24.576 0-1.024 23.552-123.904 104.448-246.784C501.76 418.816 559.104 361.472 624.64 321.536c62.464-37.888 133.12-62.464 210.944-71.68L740.352 348.16c-11.264 11.264-11.264 29.696 1.024 40.96 11.264 11.264 30.72 11.264 41.984-1.024 0 0 141.312-143.36 147.456-150.528 12.288-11.264 13.312-34.816-6.144-41.984-8.192-3.072-222.208-76.8-222.208-76.8-15.36-5.12-31.744 3.072-36.864 18.432s3.072 31.744 18.432 36.864l87.04 28.672c-63.488 14.336-122.88 36.864-177.152 70.656-73.728 44.032-137.216 106.496-189.44 184.32-86.016 132.096-110.592 262.144-111.616 267.264z" p-id="3255"></path></svg>