<?xml version="1.0" standalone="no"?><!DOCTYPE svg PUBLIC "-//W3C//DTD SVG 1.1//EN" "http://www.w3.org/Graphics/SVG/1.1/DTD/svg11.dtd"><svg t="1589511239406" class="icon" viewBox="0 0 1024 1024" version="1.1" xmlns="http://www.w3.org/2000/svg" p-id="3870" xmlns:xlink="http://www.w3.org/1999/xlink" width="200" height="200"><defs><style type="text/css">@font-face { font-family: uc-nexus-iconfont; src: url("chrome-extension://pogijhnlcfmcppgimcaccdkmbedjkmhi/res/font_9qmmi8b8jsxxbt9.woff") format("woff"), url("chrome-extension://pogijhnlcfmcppgimcaccdkmbedjkmhi/res/font_9qmmi8b8jsxxbt9.ttf") format("truetype"); }
</style></defs><path d="M945.2 714L739.6 508.6l187.5-187.4c12.9-12.7 20.3-29.5 21-47.2 0.7-18.3-5.9-35.4-18.6-48L798.3 94.7c-12.1-12-28.2-18.5-45.5-18.5-18.4 0-36.6 7.6-49.9 21l-78.1 78c-0.1 0.1-0.2 0.1-0.2 0.2l-0.2 0.2-109 108.9L309.9 79.1c-12.5-12.4-29-19.2-46.5-19.2-17.6 0-34.1 6.8-46.5 19.2L79.2 216.7c-12.4 12.5-19.2 29-19.2 46.4 0 17.6 6.8 34.1 19.2 46.5l205.6 205.3L129 670.6c-4.1 4-6.6 9.5-7 15.3L84.9 911.5c0 0.2 0 0.3-0.1 0.5v0.3c0 0.3-0.1 0.5-0.1 0.8v4c0.1 1.5 0.3 2.9 0.7 4.3 0 0.1 0.1 0.3 0.1 0.4 0.1 0.5 0.3 1 0.4 1.4 2.7 8.3 9.8 14.3 18.5 15.7h0.8c1.1 0.1 2.1 0.2 3.2 0.2 1 0 1.9-0.1 2.8-0.2 0.3 0 0.6-0.1 0.9-0.1h0.1l228.2-37.4c5.7-1 10.6-3.9 14.1-8L509 739l205.5 205.4c12.5 12.4 29 19.2 46.5 19.2 17.6 0 34.1-6.8 46.5-19.2l137.7-137.5c12.4-12.5 19.2-29 19.2-46.4 0-17.6-6.9-34.1-19.2-46.5zM736.4 130.7c4.5-4.5 10.5-7.1 16.3-7.1 4.7 0 8.9 1.7 11.9 4.7L896 259.6c3.2 3.1 4.8 7.5 4.6 12.6-0.2 5.6-2.7 11.1-7.1 15.5L832 349.1l-157.1-157 61.5-61.4zM112.8 276.1c-3.4-3.4-5.3-8-5.3-12.9s1.9-9.5 5.3-12.9l137.7-137.6c3.4-3.4 8-5.3 12.9-5.3s9.5 1.9 12.9 5.3l205.4 205.5-163.4 163.2-205.5-205.3z m221.8 256.2l0.6-0.6 197.1-196.8c0.6-0.6 1.2-1.3 1.7-1.9l107.3-107.3 157.1 157-109.1 109-0.1 0.1-197 196.8-0.1 0.1-155.7 155.6-157.1-156.9 155.3-155.1zM161.7 736.9L286.9 862l-149.8 24.6 24.6-149.7z m749.9 36.3L774 910.8c-3.4 3.4-8 5.3-12.9 5.3s-9.5-1.9-12.9-5.3L542.6 705.4l69.3-69.2 94.1-94.1 205.6 205.3c3.4 3.4 5.3 8 5.3 12.9s-1.9 9.5-5.3 12.9z" p-id="3871"></path><path d="M418 638.3c6.2 0 12.1-2.5 16.8-7l192-191.9c4.4-4.4 7-10.5 7-16.8 0-6.3-2.5-12.3-7-16.8-4.4-4.4-10.5-7-16.8-7-6.4 0-12.3 2.5-16.8 7l-192 191.9c-4.4 4.4-7 10.5-7 16.8 0 6.3 2.5 12.4 6.9 16.7 4.5 4.6 10.5 7.1 16.9 7.1z" p-id="3872"></path></svg>