<?xml version="1.0" standalone="no"?><!DOCTYPE svg PUBLIC "-//W3C//DTD SVG 1.1//EN" "http://www.w3.org/Graphics/SVG/1.1/DTD/svg11.dtd"><svg t="1589511296940" class="icon" viewBox="0 0 1024 1024" version="1.1" xmlns="http://www.w3.org/2000/svg" p-id="5054" xmlns:xlink="http://www.w3.org/1999/xlink" width="200" height="200"><defs><style type="text/css">@font-face { font-family: uc-nexus-iconfont; src: url("chrome-extension://pogijhnlcfmcppgimcaccdkmbedjkmhi/res/font_9qmmi8b8jsxxbt9.woff") format("woff"), url("chrome-extension://pogijhnlcfmcppgimcaccdkmbedjkmhi/res/font_9qmmi8b8jsxxbt9.ttf") format("truetype"); }
</style></defs><path d="M874.04088889 972.23111111H139.37777778c-20.36622222 0-36.97777778-16.61155555-36.97777778-36.97777778V152.68977778c0-20.36622222 16.61155555-36.97777778 36.97777778-36.97777778h288.31288889v73.95555555H176.35555555v708.608h660.70755556V189.66755555l-251.33511111 0.11377778v-73.95555555l288.31288889-0.11377778c20.36622222 0 36.97777778 16.61155555 36.97777778 36.97777778V935.25333333c0 20.36622222-16.49777778 36.97777778-36.97777778 36.97777778z" p-id="5055"></path><path d="M659.68355555 162.47466667h-73.95555555c0-20.59377778-7.96444445-39.48088889-22.528-53.36177778-14.79111111-14.10844445-34.816-21.84533333-56.43377778-21.84533334s-41.64266667 7.73688889-56.43377777 21.84533334C435.76888889 122.99377778 427.80444445 141.88088889 427.80444445 162.47466667h-73.95555556c0-40.96 16.15644445-78.848 45.39733333-106.83733334 28.55822222-27.30666667 66.78755555-42.32533333 107.52-42.32533333s78.96177778 15.01866667 107.52 42.32533333c29.24088889 27.98933333 45.39733333 65.87733333 45.39733333 106.83733334z" p-id="5056"></path><path d="M701.44 301.16977778H311.97866667V116.16711111h89.88444444v72.81777778h-17.06666666v39.36711111h243.82577777v-39.36711111h-31.97155555v-72.81777778h104.78933333zM224.256 444.98488889h349.41155555v73.95555556H224.256zM224.256 638.06577778h467.28533333v73.95555555H224.256z" p-id="5057"></path></svg>