<?xml version="1.0" standalone="no"?><!DOCTYPE svg PUBLIC "-//W3C//DTD SVG 1.1//EN" "http://www.w3.org/Graphics/SVG/1.1/DTD/svg11.dtd"><svg t="1586327642051" class="icon" viewBox="0 0 1024 1024" version="1.1" xmlns="http://www.w3.org/2000/svg" p-id="1787" xmlns:xlink="http://www.w3.org/1999/xlink" width="200" height="200"><defs><style type="text/css">@font-face { font-family: uc-nexus-iconfont; src: url("chrome-extension://pogijhnlcfmcppgimcaccdkmbedjkmhi/res/font_9qmmi8b8jsxxbt9.woff") format("woff"), url("chrome-extension://pogijhnlcfmcppgimcaccdkmbedjkmhi/res/font_9qmmi8b8jsxxbt9.ttf") format("truetype"); }
</style></defs><path d="M675.7 281h-440v-50h440v50z m-365.9 90h-74.1v50h74.1v-50z m125.3 5.2v50c-2.7 0-6.9 0-10.7 9.8-3.8 9.6-4.2 22.5-1.2 35.3 2.5 10.6 8.6 26.2 23.3 40 37 34.6 71 76.6 93.1 105.8 25.7 34.1 47.5 67 56.7 86 7 14.3 25.5 52.2 5.1 84.8-6.7 10.8-22.9 28.8-55.8 28.8-17.6 0-36.8-5.3-57-11-17.7-5-37.8-10.6-50.8-10.6h-0.8c-6.9 9.5-9.1 17-8 20.4 1.9 6.1 16.4 20.6 57.7 32.2 73.3 20.5 95.3 29.8 125.7 42.8 13 5.5 27.8 11.8 49.7 20.2C698 924.5 739 932 777.5 932c25.9 0 49.3-3.4 69.8-10 20.4-6.6 37.1-16.4 49.6-29.1 26-26.2 32.8-41.9 36-53.8 4.7-17.6 4.2-40.2 3.4-71.4l-0.1-5.6c-0.8-33-4.2-61.4-10.5-87-7.7-31.5-19.8-57.9-35.8-78.4-15.8-20.3-33.5-29.3-57.3-29.3-37.7 0-81.6 22.8-110.7 38-24.1 12.5-40.1 20.8-58.5 20.8-39 0-61.4-31.7-87.4-68.4-21-29.6-47-66.4-86.5-101.5-31.4-27.9-49.4-30.1-54.2-30.1l-0.2-50m0 0c23.7 0 53.2 12.3 87.5 42.7 84.5 75.2 113.5 157.3 140.7 157.3 18.6 0 94.4-58.8 169.2-58.8 34.3 0 68.4 12.4 96.7 48.5 45.5 58.2 55.5 136.4 56.9 195 1.8 73.5 4.3 108.9-53.8 167.3-38.2 38.5-95.8 53.8-154.9 53.8-46.4 0-93.7-9.5-133.3-24.7-73.1-28-69-33-171-61.5s-114-85.5-71.3-137c8.4-10.1 21.2-13.7 35.9-13.7 36 0 83.8 21.6 107.8 21.6 16 0 21.5-9.6 5.8-41.7-14-28.6-77.6-119.8-139-177.2-66.2-61.9-47.9-171.6 22.8-171.6z m-95.3 468.9H145.7v-720h620v271h50v-321h-720v820h244.1v-50z" fill="" p-id="1788"></path></svg>