<?xml version="1.0" standalone="no"?><!DOCTYPE svg PUBLIC "-//W3C//DTD SVG 1.1//EN" "http://www.w3.org/Graphics/SVG/1.1/DTD/svg11.dtd"><svg t="1589511734050" class="icon" viewBox="0 0 1075 1024" version="1.1" xmlns="http://www.w3.org/2000/svg" p-id="9860" xmlns:xlink="http://www.w3.org/1999/xlink" width="209.9609375" height="200"><defs><style type="text/css">@font-face { font-family: uc-nexus-iconfont; src: url("chrome-extension://pogijhnlcfmcppgimcaccdkmbedjkmhi/res/font_9qmmi8b8jsxxbt9.woff") format("woff"), url("chrome-extension://pogijhnlcfmcppgimcaccdkmbedjkmhi/res/font_9qmmi8b8jsxxbt9.ttf") format("truetype"); }
</style></defs><path d="M653.7728 612.1472a100.352 100.352 0 0 0-28.16 69.8368c0 27.136 10.752 51.712 28.16 69.8368 17.408-18.1248 28.16-42.7008 28.16-69.8368 0-27.136-10.752-51.712-28.16-69.8368z m-44.544-26.9312a100.7616 100.7616 0 0 0-128.6656 96.768 100.6592 100.6592 0 0 0 128.6144 96.768 151.1936 151.1936 0 0 1-34.816-96.768c0-36.7616 13.1072-70.4512 34.816-96.768z m89.088 193.536a100.7616 100.7616 0 0 0 128.7168-96.768 100.7104 100.7104 0 0 0-128.7168-96.768c21.7088 26.3168 34.816 60.0064 34.816 96.768s-13.056 70.4512-34.816 96.768z m-44.544 36.7104a151.8592 151.8592 0 1 1 0-266.9568 151.9104 151.9104 0 1 1 0 266.9568zM240.896 295.424a25.6 25.6 0 0 1 0-51.2H506.368a25.6 25.6 0 0 1 0 51.2H240.896z m0 132.2496a25.6 25.6 0 0 1 0-51.2h92.7744a25.6 25.6 0 0 1 0 51.2H240.896z m659.2512 518.2976c49.664 0 89.8048-40.192 89.8048-89.8048V187.904c0-49.5616-40.192-89.8048-89.8048-89.8048H183.7056c-49.5616 0-89.7536 40.2432-89.7536 89.8048v668.3136c0 49.664 40.192 89.8048 89.7536 89.8048h716.4416z m0 51.2H183.7056a141.0048 141.0048 0 0 1-140.9536-141.0048V187.904A141.0048 141.0048 0 0 1 183.7056 46.8992h716.4416a141.0048 141.0048 0 0 1 141.0048 141.0048v668.3136a141.0048 141.0048 0 0 1-141.0048 141.0048z" p-id="9861"></path></svg>