<?xml version="1.0" standalone="no"?><!DOCTYPE svg PUBLIC "-//W3C//DTD SVG 1.1//EN" "http://www.w3.org/Graphics/SVG/1.1/DTD/svg11.dtd"><svg t="1589511956359" class="icon" viewBox="0 0 1024 1024" version="1.1" xmlns="http://www.w3.org/2000/svg" p-id="14384" xmlns:xlink="http://www.w3.org/1999/xlink" width="200" height="200"><defs><style type="text/css">@font-face { font-family: uc-nexus-iconfont; src: url("chrome-extension://pogijhnlcfmcppgimcaccdkmbedjkmhi/res/font_9qmmi8b8jsxxbt9.woff") format("woff"), url("chrome-extension://pogijhnlcfmcppgimcaccdkmbedjkmhi/res/font_9qmmi8b8jsxxbt9.ttf") format("truetype"); }
</style></defs><path d="M744.942345 862.843586a30.366897 30.366897 0 0 1-24.999724-12.994207 29.519448 29.519448 0 0 1 7.874207-41.419034l2.330482-1.588966a30.578759 30.578759 0 0 1 42.125242 7.591724c9.498483 13.523862 6.038069 32.132414-7.697655 41.454345l-2.577656 1.765518a30.614069 30.614069 0 0 1-17.054896 5.19062zM241.981793 861.572414a30.402207 30.402207 0 0 1-17.054896-5.190621l-3.177931-2.189241a29.519448 29.519448 0 0 1-6.638345-41.666207 30.543448 30.543448 0 0 1 42.266482-6.532414l1.765518 1.200552c13.771034 9.286621 17.302069 27.859862 7.874207 41.419034a30.472828 30.472828 0 0 1-25.035035 12.958897z m583.574069-68.360828a30.437517 30.437517 0 0 1-19.985655-7.415172 29.519448 29.519448 0 0 1-2.683586-42.089931l1.412413-1.553655a31.108414 31.108414 0 0 1 43.078621-2.824828c12.464552 10.981517 13.912276 29.413517 2.824828 41.701517l-0.776828 0.847449-1.129931 1.271172a30.543448 30.543448 0 0 1-22.739862 10.063448zM161.721379 791.657931a30.472828 30.472828 0 0 1-22.633931-9.992828l-2.153931-2.436413a29.484138 29.484138 0 0 1 2.895449-42.019311 30.543448 30.543448 0 0 1 42.725517 2.824828l1.765517 1.977379a29.519448 29.519448 0 0 1-2.471724 42.089931 30.437517 30.437517 0 0 1-20.126897 7.556414z m725.415724-84.921379a30.472828 30.472828 0 0 1-14.230069-3.531035 29.590069 29.590069 0 0 1-12.429241-40.324414l1.271173-2.401103a30.508138 30.508138 0 0 1 40.889379-12.535172c14.830345 7.627034 20.48 25.670621 12.711724 40.253793l-1.483035 2.789517a30.366897 30.366897 0 0 1-26.729931 15.748414zM100.634483 704.900414a30.331586 30.331586 0 0 1-26.729931-15.783724l-1.553655-2.930759a29.590069 29.590069 0 0 1 12.994206-40.183172 30.472828 30.472828 0 0 1 40.783449 12.782344l1.200551 2.224552a29.590069 29.590069 0 0 1-12.464551 40.359724 30.472828 30.472828 0 0 1-14.230069 3.531035z m825.238069-96.679724a30.366897 30.366897 0 0 1-7.13269-0.847449 29.801931 29.801931 0 0 1-22.316138-36.016551l0.494345-1.906759a30.896552 30.896552 0 0 1 36.793379-22.280828c16.207448 3.954759 26.235586 19.526621 22.245518 35.486897l-0.282483 1.235862-0.388414 1.553655a30.225655 30.225655 0 0 1-29.413517 22.775173z m-863.479173-2.01269a30.190345 30.190345 0 0 1-29.378207-22.669241l-0.706206-2.966069a29.801931 29.801931 0 0 1 22.245517-36.016552 30.225655 30.225655 0 0 1 36.546207 21.963034l0.706207 2.754207a29.801931 29.801931 0 0 1-29.413518 36.934621z m877.003035-102.753103h-0.211862a30.013793 30.013793 0 0 1-30.049104-30.049104v-4.519724c0-16.454621 13.559172-29.801931 30.260966-29.801931s30.260966 13.34731 30.260965 29.801931v4.943448a30.049103 30.049103 0 0 1-30.260965 29.590069z m-890.032552-2.542345a29.66069 29.66069 0 0 1-30.260965-29.342897v-3.283862a30.049103 30.049103 0 0 1 30.260965-29.484138h0.353104a30.049103 30.049103 0 0 1 29.943172 30.119724v1.730207a30.437517 30.437517 0 0 1-30.296276 30.260966zM653.629793 91.10069a30.614069 30.614069 0 0 1-10.769655-1.97738l-2.718897-0.988689a29.696 29.696 0 0 1-17.619862-38.452966 30.402207 30.402207 0 0 1 39.017931-17.337379l2.860138 1.05931a29.66069 29.66069 0 0 1 17.513931 38.488276 30.260966 30.260966 0 0 1-28.283586 19.208828z m-318.287448-0.105931a30.296276 30.296276 0 0 1-28.318897-19.208828 29.66069 29.66069 0 0 1 17.513931-38.488276l3.177931-1.165241a30.402207 30.402207 0 0 1 38.84138 17.796414 29.66069 29.66069 0 0 1-18.078897 38.205793l-2.401103 0.918069a30.543448 30.543448 0 0 1-10.734345 1.942069z m214.227862-25.494069a30.119724 30.119724 0 0 1-3.636966-0.211862l-2.930758-0.353104a29.943172 29.943172 0 0 1-26.482759-33.156414 30.331586 30.331586 0 0 1 33.650759-26.059034l2.966069 0.353103c16.595862 1.977379 28.460138 16.807724 26.482758 33.191724a30.084414 30.084414 0 0 1-30.013793 26.235587z m-110.238897 0a30.084414 30.084414 0 0 1-30.013793-26.306207 29.943172 29.943172 0 0 1 26.482759-33.156414l2.930758-0.317793a30.119724 30.119724 0 0 1 33.650759 26.023724 29.907862 29.907862 0 0 1-26.447448 33.191724l-2.966069 0.353104a30.437517 30.437517 0 0 1-3.636966 0.211862z" p-id="14385"></path><path d="M247.172414 226.586483c50.034759 9.004138 105.931034 44.985379 105.931034 88.13462v9.004138c0 49.434483-24.505379 89.900138-78.459586 89.900138H78.459586C24.505379 413.625379 0 373.159724 0 323.725241v-9.004138c0-43.149241 55.896276-79.130483 105.931034-88.13462-28.460138-22.457379-47.06869-59.321379-47.068689-100.705104C58.862345 56.673103 111.827862 0 176.551724 0c64.723862 0 117.689379 56.637793 117.689379 126.764138 0 41.383724-18.608552 77.329655-47.068689 99.822345z m-119.666759 16.207448c-47.06869 0-107.873103 35.063172-107.873103 71.927172v9.004138c0 21.53931 5.861517 71.927172 58.827034 71.927173h196.184276c52.965517 0 58.827034-50.352552 58.827035-71.927173v-9.004138c0-36.864-60.804414-71.927172-107.873104-71.927172H220.689655A120.161103 120.161103 0 0 1 176.551724 251.762759c-15.677793 0-30.402207-3.566345-44.137931-8.968828h-4.908138zM176.551724 17.972966c-53.954207 0-98.092138 48.551724-98.092138 107.908413S122.597517 233.789793 176.551724 233.789793s98.092138-47.668966 98.092138-107.908414C274.643862 66.56 230.505931 18.008276 176.551724 18.008276zM918.068966 226.586483c50.034759 9.004138 105.931034 44.985379 105.931034 88.13462v9.004138c0 49.434483-24.505379 89.900138-78.459586 89.900138h-196.184276c-53.954207 0-78.459586-40.465655-78.459586-89.900138v-9.004138c0-43.149241 55.896276-79.130483 105.931034-88.13462-28.460138-22.457379-47.06869-59.321379-47.068689-100.705104C729.758897 56.673103 782.724414 0 847.448276 0c64.723862 0 117.689379 56.637793 117.689379 126.764138 0 41.383724-18.608552 77.329655-47.068689 99.822345z m-119.666759 16.207448c-47.06869 0-107.873103 35.063172-107.873104 71.927172v9.004138c0 21.53931 5.861517 71.927172 58.827035 71.927173h196.184276c52.965517 0 58.827034-50.352552 58.827034-71.927173v-9.004138c0-36.864-60.804414-71.927172-107.873103-71.927172h-4.908138A120.161103 120.161103 0 0 1 847.448276 251.762759c-15.677793 0-30.402207-3.566345-44.137931-8.968828h-4.908138zM847.448276 17.972966c-53.954207 0-98.092138 48.551724-98.092138 107.908413S793.494069 233.789793 847.448276 233.789793s98.092138-47.668966 98.092138-107.908414c0-59.321379-44.137931-107.908414-98.092138-107.908413zM564.965517 836.961103c50.034759 9.004138 105.931034 44.950069 105.931035 88.134621v8.968828C670.896552 983.534345 646.391172 1024 592.436966 1024h-196.184276C342.298483 1024 317.793103 983.534345 317.793103 934.064552V925.131034c0-43.184552 55.896276-79.130483 105.931035-88.13462-28.460138-22.49269-47.06869-59.321379-47.06869-100.705104 0-69.208276 52.965517-125.881379 117.68938-125.881379 64.723862 0 117.689379 56.637793 117.689379 126.764138 0 41.383724-18.608552 77.329655-47.06869 99.822345z m-119.666758 16.172138c-47.06869 0-107.873103 35.098483-107.873104 71.962483v8.968828c0 21.609931 5.861517 71.962483 58.827035 71.962482h196.184276c52.965517 0 58.827034-50.352552 58.827034-71.962482V925.131034c0-36.864-60.804414-71.962483-107.873103-71.962482h-4.908138a120.161103 120.161103 0 0 1-44.137931 9.004138c-15.677793 0-30.402207-3.601655-44.137931-9.004138h-4.908138zM494.344828 628.347586c-53.954207 0-98.092138 48.551724-98.092138 107.908414 0 59.321379 44.137931 107.908414 98.092138 107.908414s98.092138-47.668966 98.092138-107.908414c0-59.321379-44.137931-107.908414-98.092138-107.908414z" p-id="14386"></path></svg>