<?xml version="1.0" standalone="no"?><!DOCTYPE svg PUBLIC "-//W3C//DTD SVG 1.1//EN" "http://www.w3.org/Graphics/SVG/1.1/DTD/svg11.dtd"><svg t="1594000393728" class="icon" viewBox="0 0 1024 1024" version="1.1" xmlns="http://www.w3.org/2000/svg" p-id="2506" xmlns:xlink="http://www.w3.org/1999/xlink" width="200" height="200"><defs><style type="text/css"></style></defs><path d="M816.64 97.792c29.696 0 52.224 14.336 59.904 37.888l0.512 1.536 0.512 1.536L962.56 351.744v1.024l2.56 7.68c23.04 69.632-7.168 146.432-71.68 182.272-19.456 10.752-44.032 16.384-72.192 16.384-45.056 0-87.04-19.968-115.712-54.272l-39.424-47.104-39.424 47.104a150.5792 150.5792 0 0 1-114.176 54.272c-45.056-0.512-86.528-19.968-114.688-54.272L358.4 457.728l-39.424 47.616c-28.672 34.304-71.168 54.272-115.712 54.272h-0.512c-27.648 0-51.712-5.12-70.656-15.872C81.92 516.608 51.2 464.896 51.2 408.064c0-15.872 2.56-32.768 7.68-48.128l0.512-1.536 0.512-1.536 91.648-219.648 0.512-1.536 0.512-2.048c7.68-22.528 28.16-35.84 56.32-35.84h607.744m0-51.2H209.408c-51.2 0-90.624 27.648-104.96 70.656L11.776 338.944c-0.512 1.536-1.024 3.072-1.536 5.12-6.656 20.48-10.24 42.496-10.24 64C0 483.328 40.96 552.96 107.52 588.8c27.136 14.848 59.392 22.016 95.232 22.016h0.512c59.904 0 116.736-26.624 155.136-72.704 37.888 46.08 94.72 72.192 154.112 72.704 59.392-0.512 115.712-27.136 153.6-72.704 38.4 46.08 95.232 72.704 155.648 72.704 36.864-0.512 69.632-8.192 96.768-23.04 85.504-48.128 125.952-149.504 95.232-243.2V343.04c-0.512-2.048-1.024-4.096-2.048-6.144l-86.528-217.6c-14.848-44.544-56.32-72.704-108.544-72.704z" p-id="2507"></path><path d="M799.232 306.688H208.384c-20.48 0-36.864 16.896-36.864 37.376s16.384 36.864 36.864 36.864H798.72c20.48 0 37.376-15.872 37.376-36.864s-16.384-37.376-36.864-37.376zM179.2 977.408c-63.488 0-114.688-51.712-114.688-115.2v-188.416c0-14.336 11.264-25.6 25.6-25.6s25.6 11.264 25.6 25.6v188.416c0 35.328 28.672 64 63.488 64l654.848-0.512c34.816-0.512 63.488-29.184 63.488-64l-0.512-191.488c0-14.336 11.264-25.6 25.6-25.6s25.6 11.264 25.6 25.6l0.512 191.488c0 62.976-51.2 114.688-114.688 115.2l-654.848 0.512z" p-id="2508"></path></svg>