<?xml version="1.0" standalone="no"?><!DOCTYPE svg PUBLIC "-//W3C//DTD SVG 1.1//EN" "http://www.w3.org/Graphics/SVG/1.1/DTD/svg11.dtd"><svg t="1594000321502" class="icon" viewBox="0 0 1024 1024" version="1.1" xmlns="http://www.w3.org/2000/svg" p-id="1761" xmlns:xlink="http://www.w3.org/1999/xlink" width="200" height="200"><defs><style type="text/css"></style></defs><path d="M168 640a40 40 0 0 0-40 40v240a40 40 0 0 0 80 0V680a40 40 0 0 0-40-40z m229.33-256a40 40 0 0 0-40 40v496a40 40 0 0 0 80 0V424a40 40 0 0 0-40-40zM856 384a40 40 0 0 0-40 40v496a40 40 0 0 0 80 0V424a40 40 0 0 0-40-40zM626.67 576a40 40 0 0 0-40 40v304a40 40 0 0 0 40 40 40 40 0 0 0 40-40V616a40 40 0 0 0-40-40zM920.33 64H776a40 40 0 0 0 0 80h47.5L631.14 334.11l-194.95-195a39.49 39.49 0 0 0-54.51-1.27q-0.82 0.74-1.62 1.53L75.72 443.76a39.85 39.85 0 0 0 56.36 56.36l276.17-276.18L600.34 416c0.69 0.82 1.4 1.61 2.16 2.38a39.59 39.59 0 0 0 20.82 11.12l0.54 0.09 1.16 0.2a39.42 39.42 0 0 0 33.18-10.5l0.61-0.58L880.33 199.9V248a40 40 0 0 0 80 0V104a40 40 0 0 0-40-40z" p-id="1762"></path></svg>