<?xml version="1.0" standalone="no"?><!DOCTYPE svg PUBLIC "-//W3C//DTD SVG 1.1//EN" "http://www.w3.org/Graphics/SVG/1.1/DTD/svg11.dtd"><svg t="1589511339374" class="icon" viewBox="0 0 1024 1024" version="1.1" xmlns="http://www.w3.org/2000/svg" p-id="6252" xmlns:xlink="http://www.w3.org/1999/xlink" width="200" height="200"><defs><style type="text/css">@font-face { font-family: uc-nexus-iconfont; src: url("chrome-extension://pogijhnlcfmcppgimcaccdkmbedjkmhi/res/font_9qmmi8b8jsxxbt9.woff") format("woff"), url("chrome-extension://pogijhnlcfmcppgimcaccdkmbedjkmhi/res/font_9qmmi8b8jsxxbt9.ttf") format("truetype"); }
</style></defs><path d="M975.985962 413.803537l-1.77339-10.308787-81.121576-226.713488c-21.138436-72.486918-65.886593-83.314521-90.674139-83.314521l-543.682583 0c-42.493813 0-75.398224 30.070876-90.434685 82.547041l-81.361029 227.480968-1.77339 10.308787c0 34.421974 19.023262 64.47443 47.105854 80.214926 3.701299 30.106692 16.10377 57.497529 34.555004 79.492472l0 229.550093c0 45.037752 36.651758 81.679277 81.680301 81.679277l570.083883 0c45.027519 0 81.680301-36.642548 81.680301-81.679277L900.270513 583.698972c26.193569-26.003234 43.051515-61.688991 44.910862-101.30936C964.068538 465.548038 975.985962 441.043948 975.985962 413.803537zM176.147324 505.683131c0.301875 0.00307 0.602727 0.011256 0.905626 0.011256l207.65441 0c-13.025665 46.372144-54.849212 80.404238-104.278995 80.404238C230.996536 586.098625 189.168895 552.061414 176.147324 505.683131zM859.430362 803.061029c0 22.523993-18.327414 40.84015-40.841174 40.84015L248.504282 843.901179c-22.514783 0-40.84015-18.316158-40.84015-40.84015L207.664132 607.643314c21.542642 12.279674 46.361911 19.294438 72.764234 19.294438 54.898331 0 102.956883-30.280654 128.900765-75.271334 25.944905 44.99068 74.003458 75.271334 128.901789 75.271334 54.899354 0 102.956883-30.280654 128.902812-75.271334 25.942859 44.99068 74.001411 75.271334 128.901789 75.271334 22.654976 0 44.141336-5.166673 63.394842-14.388708L859.430362 803.061029zM433.951925 505.694387l208.559013 0c-13.024641 46.372144-54.849212 80.404238-104.278995 80.404238C488.80216 586.098625 446.977589 552.066531 433.951925 505.694387zM796.03552 586.098625c-49.431829 0-91.2564-34.032094-104.281041-80.404238L884.096135 505.694387c5.676279 0 11.231809-0.520863 16.625656-1.511423C888.187313 551.325657 845.996398 586.098625 796.03552 586.098625zM884.096135 475.063763 687.55176 475.063763l-40.839127 0L429.750229 475.063763l-40.84015 0-211.855082 0c-33.840736 0-61.260226-27.429723-61.260226-61.260226l81.679277-228.447992c8.874111-31.606859 27.41949-61.260226 61.259202-61.260226l543.682583 0c33.840736 0 51.707662 28.53694 61.261249 61.260226l81.679277 228.447992C945.35636 447.635063 917.936871 475.063763 884.096135 475.063763z" p-id="6253"></path></svg>