<?xml version="1.0" standalone="no"?><!DOCTYPE svg PUBLIC "-//W3C//DTD SVG 1.1//EN" "http://www.w3.org/Graphics/SVG/1.1/DTD/svg11.dtd"><svg t="1589511429825" class="icon" viewBox="0 0 1024 1024" version="1.1" xmlns="http://www.w3.org/2000/svg" p-id="8373" xmlns:xlink="http://www.w3.org/1999/xlink" width="200" height="200"><defs><style type="text/css">@font-face { font-family: uc-nexus-iconfont; src: url("chrome-extension://pogijhnlcfmcppgimcaccdkmbedjkmhi/res/font_9qmmi8b8jsxxbt9.woff") format("woff"), url("chrome-extension://pogijhnlcfmcppgimcaccdkmbedjkmhi/res/font_9qmmi8b8jsxxbt9.ttf") format("truetype"); }
</style></defs><path d="M508.472352 383.85214c67.34534 0 122.149982 54.804642 122.149982 122.149982s-54.804642 122.149982-122.149982 122.149982-122.149982-54.804642-122.149982-122.149982S441.127012 383.85214 508.472352 383.85214M508.472352 329.563348c-97.44853 0-176.438974 78.990444-176.438974 176.438974s78.990245 176.438974 176.438974 176.438974 176.438974-78.990444 176.438974-176.438974S605.920882 329.563348 508.472352 329.563348M944.657818 613.722888c7.75814-33.08237 11.71086-67.147074 11.71086-101.721833 0-34.574758-3.95272-68.639462-11.71086-101.721833-3.424478-14.6025-18.03817-23.663956-32.64047-20.239478-14.6025 3.424478-23.663956 18.03817-20.239478 32.64047 6.806385 29.023522 10.276233 58.927247 10.276233 89.32084s-3.469847 60.297318-10.276233 89.32084c-3.424478 14.6025 5.636978 29.215992 20.239478 32.64047C926.619648 637.386844 941.23334 628.325387 944.657818 613.722888L944.657818 613.722888zM912.571772 634.571153c1.717835 0 3.155461 0.025982 4.466372 0.082944 14.984441 0.651558 27.660046-10.967564 28.311405-25.952005 0.651558-14.984441-10.967564-27.659847-25.952005-28.311205-2.173127-0.094536-4.374234-0.134309-6.825572-0.134309-14.998631 0-27.157187 12.158756-27.157187 27.157387C885.414585 622.412396 897.573141 634.571153 912.571772 634.571153L912.571772 634.571153zM823.90289 797.944586c-11.086883-17.029254-17.073024-36.869003-17.073024-57.631526 0-58.400005 47.341902-105.741907 105.741907-105.741907 14.998431 0 27.157187-12.158756 27.157187-27.157387 0-14.998431-12.158756-27.157387-27.157187-27.157387-88.397267 0-160.056482 71.659415-160.056482 160.056482 0 31.370131 9.087639 61.488711 25.869461 87.265634 8.183252 12.569478 25.006645 16.125267 37.576123 7.941815C828.530352 827.337257 832.086142 810.513864 823.90289 797.944586L823.90289 797.944586zM640.117097 937.604096c67.575784-20.29564 129.145839-56.493897 179.853459-105.270227 10.809471-10.39775 11.143045-27.589694 0.745295-38.398966s-27.589694-11.143045-38.398966-0.745295c-44.525412 42.829562-98.556179 74.595224-157.823396 92.395556-14.364661 4.314275-22.512137 19.456608-18.197862 33.821269C610.609902 933.770895 625.752236 941.918371 640.117097 937.604096L640.117097 937.604096zM416.297246 923.156492c17.308065-36.78526 54.331963-60.762003 95.703913-60.762003 41.379345 0 78.426227 23.983939 95.731094 60.762003 6.385471 13.571399 22.563902 19.396649 36.1351 13.011178 13.571399-6.385671 19.396649-22.563902 13.011178-36.1351-26.182448-55.646072-82.263425-91.952656-144.877373-91.952656-62.609751 0-118.665745 36.302187-144.850192 91.952656-6.385471 13.571199-0.56042 29.74963 13.010979 36.1351C393.733345 942.553141 409.911576 936.72789 416.297246 923.156492L416.297246 923.156492zM205.250336 833.494882c50.488769 48.177935 111.614725 83.95228 178.654872 104.107015 14.363462 4.318272 29.507994-3.825007 33.826266-18.188468 4.318272-14.363462-3.825007-29.507994-18.188468-33.826266-58.809527-17.680413-112.457954-49.078525-156.796092-91.387239-10.851043-10.35438-28.041388-9.951653-38.395768 0.89939S194.399293 823.140503 205.250336 833.494882L205.250336 833.494882zM113.276295 634.571153c58.400005 0 105.741907 47.341902 105.741907 105.741907 0 21.122679-6.193001 41.291404-17.633844 58.497139-8.304769 12.489532-4.912469 29.346503 7.576863 37.651472 12.489532 8.304769 29.346503 4.912669 37.651472-7.576863 17.319657-26.04674 26.720084-56.661384 26.720084-88.571548 0-88.397067-71.659415-160.056482-160.056482-160.056482-14.998631 0-27.157387 12.158756-27.157387 27.157387C86.119107 622.412396 98.277864 634.571153 113.276295 634.571153L113.276295 634.571153zM107.301546 634.720252c1.830759-0.100532 3.809417-0.149099 5.974749-0.149099 14.998631 0 27.157387-12.158756 27.157387-27.157387 0-14.998431-12.158756-27.157387-27.157387-27.157387-3.11269 0-6.073482 0.072551-8.954729 0.231043-14.976046 0.822842-26.449267 13.630359-25.626425 28.606405C79.518183 624.069673 92.325499 635.543094 107.301546 634.720252L107.301546 634.720252zM79.370483 410.203074c-7.770332 33.163315-11.736842 67.251004-11.736842 101.797981 0 34.546977 3.966311 68.634866 11.736842 101.797981 3.42168 14.603099 18.033373 23.667354 32.636472 20.245873 14.603099-3.42168 23.667354-18.033573 20.245873-32.636472-6.821775-29.11526-10.304613-59.045967-10.304613-89.407382 0-30.361415 3.482639-60.292322 10.304613-89.407382 3.42168-14.603099-5.642774-29.214992-20.245873-32.636472C97.403856 386.535521 82.791963 395.599975 79.370483 410.203074L79.370483 410.203074zM113.276295 389.430958c-2.165532 0-4.14419-0.048567-5.974749-0.149099-14.976046-0.822842-27.783363 10.650579-28.606405 25.626425-0.822842 14.976046 10.650579 27.783363 25.626425 28.606405 2.881047 0.158293 5.842039 0.230843 8.954729 0.230843 14.998631 0 27.157387-12.158756 27.157387-27.157387C140.433682 401.589714 128.274926 389.430958 113.276295 389.430958L113.276295 389.430958zM201.384357 225.192112c11.442442 17.207933 17.633844 37.377258 17.633844 58.524121 0 58.393209-47.335107 105.714725-105.741907 105.714725-14.998631 0-27.157387 12.158756-27.157387 27.157387 0 14.998631 12.158756 27.157387 27.157387 27.157387 88.400664 0 160.056482-71.635631 160.056482-160.0293 0-31.932949-9.398228-62.548592-26.720084-88.59873-8.304769-12.489532-25.16194-15.881832-37.651472-7.576863S193.079588 212.70258 201.384357 225.192112L201.384357 225.192112zM383.905208 86.400213c-67.040147 20.154935-128.166103 55.92908-178.654872 104.107015-10.851043 10.35438-11.25357 27.544725-0.89919 38.395768 10.35438 10.851043 27.544725 11.25357 38.395768 0.89919 44.338139-42.308915 97.986565-73.706827 156.796092-91.387239 14.363462-4.318272 22.50674-19.462804 18.188468-33.826266C413.413202 90.225419 398.26867 82.08214 383.905208 86.400213L383.905208 86.400213zM607.732254 100.845619c-17.303468 36.775266-54.348552 60.762203-95.703913 60.762203-41.396133 0-78.42183-23.974146-95.731094-60.762203-6.385471-13.571399-22.563902-19.396649-36.1351-13.010979-13.571399 6.385471-19.396649 22.563902-13.010979 36.1351 26.186446 55.654466 82.245038 91.952656 144.877373 91.952656 62.591363 0 118.669742-36.310581 144.850192-91.952656 6.385471-13.571399 0.56022-29.74963-13.011178-36.1351C630.296155 81.44897 614.117724 87.27422 607.732254 100.845619L607.732254 100.845619zM819.96476 191.662845c-50.705222-48.744751-112.269881-84.939811-179.83767-105.261633-14.363062-4.319871-29.508393 3.821809-33.828264 18.184671s3.821809 29.508393 18.184871 33.828264c59.273013 17.826913 113.309576 49.596174 157.839185 92.40415 10.812469 10.394552 28.004213 10.055582 38.398766-0.756887S830.777229 202.057397 819.96476 191.662845L819.96476 191.662845zM912.571772 389.430958c-58.407 0-105.741907-47.321516-105.741907-105.714725 0-20.786707 5.984742-40.627055 17.073024-57.658508 8.183252-12.569478 4.627463-29.392872-7.942015-37.576123-12.569478-8.183252-29.392872-4.627463-37.576123 7.942015-16.78422 25.780321-25.869461 55.8999-25.869461 87.292815 0 88.393669 71.655817 160.0293 160.056482 160.0293 14.998431 0 27.157187-12.158756 27.157187-27.157387C939.72896 401.589714 927.570203 389.430958 912.571772 389.430958L912.571772 389.430958zM917.038144 389.348214c-1.310911 0.056961-2.748337 0.082944-4.466372 0.082944-14.998631 0-27.157187 12.158756-27.157187 27.157387 0 14.998631 12.158556 27.157387 27.157187 27.157387 2.451538 0 4.652646-0.039773 6.825572-0.134109 14.984441-0.651558 26.603563-13.326964 25.952005-28.311405C944.697991 400.315778 932.022585 388.696656 917.038144 389.348214L917.038144 389.348214z" p-id="8374"></path></svg>