<?xml version="1.0" standalone="no"?><!DOCTYPE svg PUBLIC "-//W3C//DTD SVG 1.1//EN" "http://www.w3.org/Graphics/SVG/1.1/DTD/svg11.dtd"><svg t="1589511865131" class="icon" viewBox="0 0 1024 1024" version="1.1" xmlns="http://www.w3.org/2000/svg" p-id="12896" xmlns:xlink="http://www.w3.org/1999/xlink" width="200" height="200"><defs><style type="text/css">@font-face { font-family: uc-nexus-iconfont; src: url("chrome-extension://pogijhnlcfmcppgimcaccdkmbedjkmhi/res/font_9qmmi8b8jsxxbt9.woff") format("woff"), url("chrome-extension://pogijhnlcfmcppgimcaccdkmbedjkmhi/res/font_9qmmi8b8jsxxbt9.ttf") format("truetype"); }
</style></defs><path d="M866.7 360.5c14.9 0 27-12.1 27-27s-12.1-27-27-27H721.2l31.5-196c2.4-14.7-7.6-28.6-22.4-30.9-14.7-2.4-28.6 7.6-30.9 22.4l-32.9 204.5H470c-14.9 0-27 12.1-27 27s12.1 27 27 27h187.8l-80 496.9c-2.4 14.7 7.6 28.6 22.4 30.9 1.5 0.2 2.9 0.3 4.3 0.3 13 0 24.5-9.4 26.6-22.7l81.3-505.5h154.3zM110.7 360.5h166.2c14.9 0 27-12.1 27-27s-12.1-27-27-27H110.7c-14.9 0-27 12.1-27 27s12.1 27 27 27z" p-id="12897"></path><path d="M866.7 618.3H703.6c-14.9 0-27 12.1-27 27s12.1 27 27 27h163.1c14.9 0 27-12.1 27-27s-12.1-27-27-27zM522 618.3H324.8l81.7-506.9c2.4-14.7-7.6-28.6-22.4-31-14.7-2.4-28.6 7.6-31 22.4L270 618.3H110.7c-14.9 0-27 12.1-27 27s12.1 27 27 27h150.7l-29.7 184.2c-2.4 14.7 7.6 28.6 22.4 31 1.5 0.2 2.9 0.3 4.3 0.3 13 0 24.5-9.4 26.6-22.7l31.1-192.8H522c14.9 0 27-12.1 27-27s-12.1-27-27-27z" p-id="12898"></path></svg>