<?xml version="1.0" standalone="no"?><!DOCTYPE svg PUBLIC "-//W3C//DTD SVG 1.1//EN" "http://www.w3.org/Graphics/SVG/1.1/DTD/svg11.dtd"><svg t="1589511411656" class="icon" viewBox="0 0 1024 1024" version="1.1" xmlns="http://www.w3.org/2000/svg" p-id="7622" xmlns:xlink="http://www.w3.org/1999/xlink" width="200" height="200"><defs><style type="text/css">@font-face { font-family: uc-nexus-iconfont; src: url("chrome-extension://pogijhnlcfmcppgimcaccdkmbedjkmhi/res/font_9qmmi8b8jsxxbt9.woff") format("woff"), url("chrome-extension://pogijhnlcfmcppgimcaccdkmbedjkmhi/res/font_9qmmi8b8jsxxbt9.ttf") format("truetype"); }
</style></defs><path d="M519.662933 955.7504h-13.636266c-119.808-1.774933-223.402667-45.6704-308.1728-130.4576-25.668267-25.685333-47.5648-53.0432-65.041067-81.390933l-0.170667-0.290134a112.059733 112.059733 0 0 1-3.8912-6.0416C88.610133 670.890667 68.266667 594.9952 68.266667 512c0-81.646933 19.677867-156.3136 58.5216-221.986133 0.6144-1.570133 1.4336-3.054933 2.474666-4.4544l2.2016-3.771734a445.44 445.44 0 0 1 66.389334-83.950933C282.658133 113.629867 386.218667 70.0416 505.719467 68.266667H519.662933c0.034133-0.068267 0.187733 0 0.3072 0 118.391467 1.774933 221.1328 45.3632 305.339734 129.5872a475.989333 475.989333 0 0 1 66.781866 83.182933l0.170667 0.273067 0.221867 0.3584 2.747733 4.727466C935.389867 353.109333 955.733333 429.0048 955.733333 512c0 82.397867-20.053333 157.696-59.579733 223.7952a125.559467 125.559467 0 0 0-2.901333 5.085867 451.464533 451.464533 0 0 1-68.061867 84.5312c-84.053333 84.6336-186.7776 128.546133-305.186133 130.338133h-0.341334z m-193.194666-204.4416a466.773333 466.773333 0 0 0 26.248533 53.418667c41.198933 71.338667 88.098133 109.397333 143.069867 115.985066v-169.745066l-169.3184 0.341333z m203.451733-0.4096v169.796267c53.316267-6.792533 100.829867-45.7728 141.380267-116.002134a496.0768 496.0768 0 0 0 26.7776-54.152533l-168.157867 0.3584z m205.056-0.426667a538.709333 538.709333 0 0 1-34.0992 71.2704c-19.0464 32.989867-39.7312 59.938133-61.986133 80.810667 60.091733-19.3024 114.3808-53.179733 162.218666-101.341867a431.752533 431.752533 0 0 0 44.6464-51.012266l-110.779733 0.273066z m-555.707733 1.2288a432.469333 432.469333 0 0 0 42.7008 49.4592c48.059733 48.059733 102.673067 81.902933 163.208533 101.239467-22.357333-20.855467-43.0592-47.752533-62.0544-80.64a503.0912 503.0912 0 0 1-33.3824-70.365867l-110.472533 0.3072zM102.7072 529.066667c2.542933 69.085867 20.6336 132.437333 53.879467 188.552533l121.4976-0.324267c-17.7152-57.002667-27.357867-120.1664-28.740267-188.228266H102.7072z m180.770133 0c1.450667 68.642133 11.6736 131.84 30.429867 188.125866l181.879467-0.3584V529.066667H283.477333z m246.442667 0v187.6992l181.009067-0.3584c18.773333-55.808 28.9792-118.7328 30.429866-187.3408H529.92z m245.589333 0c-1.3824 67.908267-11.008 130.730667-28.672 187.2384l121.344-0.3072c32.750933-55.637333 50.568533-118.408533 53.077334-186.9312h-145.749334z m0-34.133334h145.7664c-2.525867-68.744533-20.462933-131.805867-53.4016-187.733333h-120.968533c17.646933 56.8832 27.221333 119.876267 28.603733 187.733333z m-245.589333 0h211.456c-1.4336-68.4544-11.6224-131.515733-30.293333-187.733333H529.92v187.733333z m-246.442667 0h212.309334V307.2H313.2416c-18.363733 55.876267-28.347733 118.9376-29.764267 187.733333zM102.724267 494.933333h146.619733c1.348267-68.1472 10.769067-131.140267 28.091733-187.733333H156.279467c-33.041067 55.808-51.029333 118.869333-53.5552 187.733333z m208.0256-186.333866zM734.702933 273.066667h110.6432a458.325333 458.325333 0 0 0-44.1856-51.080534c-47.735467-47.735467-101.905067-81.322667-161.8944-100.522666 22.101333 20.667733 42.6496 47.3088 61.576534 79.872A500.974933 500.974933 0 0 1 734.702933 273.066667zM529.92 273.066667h168.0896a461.482667 461.482667 0 0 0-26.692267-54.647467c-40.516267-69.666133-88.046933-108.356267-141.380266-115.0976V273.066667z m-203.9296 0h169.796267V103.2704c-54.9888 6.5536-101.905067 44.373333-143.121067 115.217067A467.012267 467.012267 0 0 0 325.9904 273.066667z m-147.797333 0h111.104a501.469867 501.469867 0 0 1 33.809066-71.645867c18.926933-32.546133 39.543467-59.1872 61.7984-79.854933-60.416 19.217067-114.944 52.7872-162.9696 100.471466A425.813333 425.813333 0 0 0 178.193067 273.066667z" p-id="7623"></path></svg>